<svg xmlns="http://www.w3.org/2000/svg" width="16" height="16"><style type="text/css">.icon-canvas-transparent{opacity:0;fill:#F6F6F6;} .icon-vs-out{fill:#F6F6F6;} .icon-vs-bg{fill:#424242;} .icon-vs-action-red{fill:#A1260D;}</style><path class="icon-canvas-transparent" d="M16 16h-16v-16h16v16z" id="canvas"/><path class="icon-vs-out" d="M16 0v16h-14v-6.678c-.163-.086-.317-.188-.451-.322-.355-.353-.549-.821-.549-1.32 0-.499.194-.968.547-1.321l.053-.053.4-.296v-3.203l-.043-.059c-.514-.699-.483-1.621.043-2.269v-.479h14z" id="outline"/><path class="icon-vs-bg" d="M3 13h12v2h-12v-2zm5.506-12h-3.207l1.337 1.52 1.87-1.52zm3.205 0l-1.743 2h5.032v-2h-3.289zm-.913 6h4.202v-2h-6.032l1.83 2zm-6.635 2.021c-.3.299-.716.479-1.163.51v1.469h12v-2h-10.813l-.024.021z" id="iconBg"/><path class="icon-vs-action-red" d="M10.339 7.979h-.466l-3.33-2.555-3.064 2.868c-.338.337-.887.337-1.226 0-.339-.338-.339-.887 0-1.225l3.34-2.467-2.83-2.444c-.25-.34-.238-.814.069-1.119.296-.296.746-.317 1.082-.097l2.606 2.961 3.177-2.581.405.002-2.856 3.278 3.093 3.379z" id="colorAction"/></svg>