<svg xmlns="http://www.w3.org/2000/svg" width="32" height="96"><style type="text/css">.icon-canvas-transparent{opacity:0;fill:#F6F6F6;} .icon-f12-grey-primary{fill:#555555;} .icon-f12-blue-hover{fill:#2279BF;} .icon-f12-ltgrey-disabled{fill:#ABABAC;} .icon-f12-error-negative{fill:#ED1123;}</style><path class="icon-canvas-transparent" d="M32 96h-32v-96h32v96z" id="canvas"/><g id="iconBg"><path class="icon-f12-grey-primary" d="M30 18v4h-21v-4h5.388l2.057 2h5.883l-1.532-2h9.204zm0 8h-21v4h21v-4zm-15.249-16l3.308 4h11.941v-4h-15.249z"/><path class="icon-f12-blue-hover" d="M30 50v4h-21v-4h5.388l2.057 2h5.883l-1.532-2h9.204zm0 8h-21v4h21v-4zm-15.249-16l3.308 4h11.941v-4h-15.249z"/><path class="icon-f12-ltgrey-disabled" d="M30 82v4h-21v-4h5.388l2.057 2h5.883l-1.532-2h9.204zm0 8h-21v4h21v-4zm-15.249-16l3.308 4h11.941v-4h-15.249z"/></g><g id="colorAction"><path class="icon-f12-error-negative" d="M3.729 4.996c-.717-.706-.599-1.738 0-2.318.578-.564 1.769-.651 2.357 0l4.004 4.692 5.884-5.37h.849l-5.557 6.76 6.793 8.24h-.85l-7.3-6.502-5.058 6.08c-.589.652-1.779.57-2.357.005-.598-.579-.717-1.609 0-2.312l5.806-5.19-4.571-4.085z"/><path class="icon-f12-error-negative" d="M3.729 36.996c-.717-.706-.599-1.738 0-2.318.578-.564 1.769-.651 2.357 0l4.003 4.692 5.885-5.37h.849l-5.557 6.76 6.793 8.24h-.85l-7.3-6.502-5.058 6.08c-.589.652-1.779.57-2.357.005-.598-.579-.717-1.609 0-2.312l5.806-5.19-4.571-4.085z"/><path class="icon-f12-ltgrey-disabled" d="M3.729 68.996c-.717-.706-.599-1.738 0-2.318.578-.564 1.769-.651 2.357 0l4.003 4.692 5.885-5.37h.849l-5.557 6.76 6.793 8.24h-.85l-7.3-6.502-5.058 6.08c-.589.652-1.779.57-2.357.005-.598-.579-.717-1.609 0-2.312l5.806-5.19-4.571-4.085z"/></g></svg>