<svg xmlns="http://www.w3.org/2000/svg" width="36" height="108"><style type="text/css">.icon-canvas-transparent{opacity:0;fill:#F6F6F6;} .icon-f12-grey-primary{fill:#555555;} .icon-f12-blue-hover{fill:#2279BF;} .icon-f12-ltgrey-disabled{fill:#ABABAC;} .icon-f12-error-negative{fill:#ED1123;}</style><path class="icon-canvas-transparent" d="M36 108h-36v-108h36v108z" id="canvas"/><g id="iconBg"><path class="icon-f12-grey-primary" d="M32 30h-24v-4h24v4zm0-12h-24v4h24v-4zm-17.01-8l3.334 4h13.676v-4h-17.01z"/><path class="icon-f12-blue-hover" d="M32 66h-24v-4h24v4zm0-12h-24v4h24v-4zm-17.051-8l3.334 4h13.717v-4h-17.051z"/><path class="icon-f12-ltgrey-disabled" d="M32 102h-24v-4h24v4zm0-12h-24v4h24v-4zm-17.01-8l3.334 4h13.676v-4h-17.01z"/></g><g id="colorAction"><path class="icon-f12-error-negative" d="M3.76 4.754c-.713-.7-.596-1.725 0-2.301.574-.561 1.756-.646 2.34 0l3.975 4.769 5.842-5.221h.844l-5.52 6.623 6.746 8.094h-.844l-7.248-6.479-5.021 6.025c-.586.646-1.766.56-2.34 0-.594-.575-.715-1.601 0-2.299l5.764-5.154-4.538-4.057z"/><path class="icon-f12-error-negative" d="M3.719 40.753c-.713-.7-.596-1.725 0-2.301.574-.56 1.756-.646 2.34 0l3.975 4.769 5.841-5.221h.844l-5.52 6.623 6.746 8.094h-.844l-7.248-6.479-5.021 6.025c-.586.647-1.766.561-2.34 0-.594-.574-.715-1.6 0-2.299l5.764-5.154-4.537-4.057z"/><path class="icon-f12-ltgrey-disabled" d="M3.718 76.752c-.712-.699-.595-1.725 0-2.301.574-.561 1.757-.645 2.341 0l3.975 4.77 5.84-5.221h.844l-5.519 6.623 6.745 8.094h-.844l-7.247-6.479-5.021 6.025c-.585.646-1.767.561-2.341 0-.594-.576-.713-1.602 0-2.299l5.765-5.154-4.538-4.058z"/></g></svg>