<svg xmlns="http://www.w3.org/2000/svg" width="32" height="96"><style type="text/css">.icon-canvas-transparent{opacity:0;fill:#F6F6F6;} .icon-f12-blue-hover{fill:#2279BF;} .icon-f12-ltgrey-disabled{fill:#ABABAC;} .icon-white{fill:#FFFFFF;}</style><path class="icon-canvas-transparent" d="M32 96h-32v-96h32v96z" id="canvas"/><g id="iconBg"><path class="icon-white" d="M8 10h4l4 4 4-4h4l-6 6 6 6h-4l-4-4-4 4h-4l6-6-6-6z"/><path class="icon-f12-ltgrey-disabled" d="M8 74h4l4 4 4-4h4l-6 6 6 6h-4l-4-4-4 4h-4l6-6-6-6z"/><path class="icon-f12-blue-hover" d="M8 42h4l4 4 4-4h4l-6 6 6 6h-4l-4-4-4 4h-4l6-6-6-6z"/></g></svg>