<svg xmlns="http://www.w3.org/2000/svg" width="36" height="108"><style type="text/css">.icon-canvas-transparent{opacity:0;fill:#F6F6F6;} .icon-f12-grey-primary{fill:#555555;} .icon-f12-blue-hover{fill:#2279BF;} .icon-f12-ltgrey-disabled{fill:#ABABAC;}</style><path class="icon-canvas-transparent" d="M36 108h-36v-108h36v108z" id="canvas"/><g id="iconBg"><path class="icon-f12-grey-primary" d="M18 12h4v-6h-4v6zm6-6v9.998h-12v-9.998h-6v24h24v-20l-4-4h-2z"/><path class="icon-f12-blue-hover" d="M18 48h4v-6h-4v6zm6-6v9.998h-12v-9.998h-6v24h24v-20l-4-4h-2z"/><path class="icon-f12-ltgrey-disabled" d="M18 84h4v-6h-4v6zm6-6v9.998h-12v-9.998h-6v24h24v-20l-4-4h-2z"/></g></svg>