<svg xmlns="http://www.w3.org/2000/svg" width="32" height="96"><style type="text/css">.icon-canvas-transparent{opacity:0;fill:#F6F6F6;} .icon-f12-grey-primary{fill:#555555;} .icon-f12-blue-hover{fill:#2279BF;} .icon-f12-ltgrey-disabled{fill:#ABABAC;}</style><path class="icon-canvas-transparent" d="M32 96h-32v-96h32v96z" id="canvas"/><g id="iconBg"><path class="icon-f12-grey-primary" d="M16 10h4v-6h-4v6zm6-6v9.998h-12v-9.998h-6v24h24v-20l-4-4h-2z"/><path class="icon-f12-blue-hover" d="M16 42h4v-6h-4v6zm6-6v9.998h-12v-9.998h-6v24h24v-20l-4-4h-2z"/><path class="icon-f12-ltgrey-disabled" d="M16 74h4v-6h-4v6zm6-6v9.998h-12v-9.998h-6v24h24v-20l-4-4h-2z"/></g></svg>