<svg xmlns="http://www.w3.org/2000/svg" width="16" height="16"><style type="text/css">.icon-canvas-transparent{opacity:0;fill:#F6F6F6;} .icon-vs-out{fill:#F6F6F6;} .icon-vs-bg{fill:#424242;} .icon-vs-fg{fill:#F0EFF1;}</style><path class="icon-canvas-transparent" d="M16 16h-16v-16h16v16z" id="canvas"/><path class="icon-vs-out" d="M16 2v12h-16v-12h16z" id="outline"/><path class="icon-vs-bg" d="M1 3v10h14v-10h-14zm13 9h-12v-8h12v8zm-9-2h-1v-4h1v4zm-1-5v1h-1v-1h1zm2 1h-1v-1h1v1zm-2 5h-1v-1h1v1zm1 0v-1h1v1h-1z" id="iconBg"/><path class="icon-vs-fg" d="M2 4v8h12v-8h-12zm4 2h-1v4h1v1h-1v-1h-1v1h-1v-1h1v-4h-1v-1h1v1h1v-1h1v1z" id="iconFg"/></svg>