<?xml version="1.0" encoding="UTF-8" standalone="no"?>
<!DOCTYPE svg PUBLIC "-//W3C//DTD SVG 20010904//EN"
              "http://www.w3.org/TR/2001/REC-SVG-20010904/DTD/svg10.dtd">

<svg xmlns="http://www.w3.org/2000/svg"
     width="8.5in" height="8.5in"
     viewBox="0 0 612 612">
  <path id="Auswahl"
        fill="none" stroke="black" stroke-width="1"
        d="M 310.95,105.52
           C 310.95,105.52 317.50,98.98 317.50,98.98
             317.50,98.98 451.99,141.00 451.99,141.00
             451.99,141.00 547.01,236.48 547.01,236.48
             547.01,236.48 494.49,289.00 494.49,289.00
             494.49,289.00 310.95,105.52 310.95,105.52 Z
           M 413.01,215.53
           C 413.01,215.53 296.99,331.51 296.99,331.51
             296.99,331.51 268.49,302.99 268.49,302.99
             268.49,302.99 384.47,187.00 384.47,187.00
             384.47,187.00 413.01,215.53 413.01,215.53 Z
           M 260.00,302.00
           C 260.00,302.00 299.00,341.00 299.00,341.00
             302.00,343.99 302.00,352.00 299.00,355.00
             299.00,355.00 156.00,497.00 156.00,497.00
             153.00,500.00 147.02,499.98 144.00,497.00
             144.00,497.00 104.00,457.01 104.00,457.01
             101.00,454.03 101.00,446.00 104.00,443.00
             104.00,443.00 244.01,302.00 244.01,302.00
             247.01,299.00 257.01,299.01 260.00,302.00 Z" />
</svg>
