<svg xmlns="http://www.w3.org/2000/svg" width="16" height="16"><style type="text/css">.icon-canvas-transparent{opacity:0;fill:#F6F6F6;} .icon-vs-action-blue{fill:#00539C;} .icon-white{fill:#FFFFFF;}</style><path class="icon-canvas-transparent" d="M16 16h-16v-16h16v16z" id="canvas"/><path class="icon-white" d="M16 6v10h-12v-4.271l-1.5 1.938-2.5-3.245v-10.422h5v4h9l2 2z" id="outline"/><path class="icon-vs-action-blue" d="M12 7h-2v-2h2v2zm1-2v4h-5v-4h-3v10h10v-8l-2-2zm-9-4h-3v1.969h3v-1.969zm0 3h-3v5h3v-5zm-1.5 8l1.5-2h-3l1.5 2z" id="iconBg"/><path class="icon-white" d="M13 5v4h-5v-4h2v2h2v-2h1z" id="iconFg"/></svg>