<svg xmlns="http://www.w3.org/2000/svg" width="16" height="16"><style type="text/css">.icon-canvas-transparent{opacity:0;fill:#F6F6F6;} .icon-vs-action-orange{fill:#C27D1A;} .icon-white{fill:#FFFFFF;}</style><path class="icon-canvas-transparent" d="M16 16h-16v-16h16v16z" id="canvas"/><path class="icon-white" d="M13.974 8.983h-1.958l1.294 1.293-2.09 2.084-1.22-1.219v1.859h-2.998v-1.987l-1.348 1.349-2.086-2.086 1.292-1.294h-1.86v-2.982h1.86l-1.294-1.293 2.088-2.086 1.363 1.364v-1.985h2.983v1.843l1.224-1.223 2.085 2.088-1.293 1.292h1.958v2.983z" id="outline"/><path class="icon-vs-action-orange" d="M9 6.401h-.982v-3.401h.982v3.401zm0 2.197h-.998v3.402h.998v-3.402zm-3.346-4.563l-.673.672 2.387 2.387.672-.673-2.386-2.386zm3.852 3.852l-.673.673 2.387 2.387.674-.672-2.388-2.388zm-5.506-.887v.982h3.401v-.982h-3.401zm5.572 0l-.002.982h3.403v-.982h-3.401zm-4.59 3.275l.672.672 2.387-2.387-.673-.672-2.386 2.387zm3.852-3.854l.671.673 2.389-2.387-.672-.673-2.388 2.387z" id="iconBg"/></svg>