<svg xmlns="http://www.w3.org/2000/svg" width="36" height="108"><style type="text/css">.icon-canvas-transparent{opacity:0;fill:#F6F6F6;} .icon-white{fill:#FFFFFF;} .icon-f12-grey-primary{fill:#555555;} .icon-f12-blue-hover{fill:#2279BF;} .icon-f12-ltgrey-disabled{fill:#ABABAC;}</style><path class="icon-canvas-transparent" d="M36 108h-36v-108h36v108z" id="canvas"/><g id="iconBg"><path class="icon-f12-grey-primary" d="M17.977 2c-8.848 0-16.022 7.174-16.022 16.022 0 8.849 7.175 16.023 16.023 16.023 8.848 0 16.022-7.174 16.022-16.023 0-8.848-7.174-16.022-16.023-16.022zm3.023 28h-5v-16h5v16zm-2.5-18c-1.381 0-2.5-1.119-2.5-2.5s1.119-2.5 2.5-2.5 2.5 1.119 2.5 2.5-1.119 2.5-2.5 2.5z"/><path class="icon-f12-blue-hover" d="M18.023 38c-8.848 0-16.023 7.174-16.023 16.022 0 8.849 7.175 16.023 16.023 16.023 8.849 0 16.023-7.174 16.023-16.023-.001-8.848-7.174-16.022-16.023-16.022zm3.022 28h-5v-16h5v16zm-2.5-18c-1.381 0-2.5-1.119-2.5-2.5s1.119-2.5 2.5-2.5 2.5 1.119 2.5 2.5-1.119 2.5-2.5 2.5z"/><path class="icon-f12-ltgrey-disabled" d="M17.977 73.955c-8.848 0-16.023 7.174-16.023 16.022.001 8.849 7.175 16.023 16.023 16.023 8.849 0 16.023-7.174 16.023-16.023 0-8.848-7.174-16.022-16.023-16.022zm3.023 28h-5v-16h5v16zm-2.5-18c-1.381 0-2.5-1.119-2.5-2.5s1.119-2.5 2.5-2.5 2.5 1.119 2.5 2.5-1.119 2.5-2.5 2.5z"/></g><g id="iconFg"><path class="icon-white" d="M21 30h-5v-16h5v16zm-2.5-18c-1.381 0-2.5-1.119-2.5-2.5s1.119-2.5 2.5-2.5 2.5 1.119 2.5 2.5-1.119 2.5-2.5 2.5z"/><path class="icon-white" d="M21.045 66h-5v-16h5v16zm-2.5-18c-1.381 0-2.5-1.119-2.5-2.5s1.119-2.5 2.5-2.5 2.5 1.119 2.5 2.5-1.119 2.5-2.5 2.5z"/><path class="icon-white" d="M21 101.955h-5v-16h5v16zm-2.5-18c-1.381 0-2.5-1.119-2.5-2.5s1.119-2.5 2.5-2.5 2.5 1.119 2.5 2.5-1.119 2.5-2.5 2.5z"/></g></svg>