<svg xmlns="http://www.w3.org/2000/svg" width="16" height="16"><style type="text/css">.icon-canvas-transparent{opacity:0;fill:#F6F6F6;} .icon-vs-blue{fill:#1BA1E2;} .icon-white{fill:#FFFFFF;}</style><path class="icon-canvas-transparent" d="M16 16h-16v-16h16v16z" id="canvas"/><path class="icon-white" d="M16 8c0 4.418-3.582 8-8 8s-8-3.582-8-8 3.582-8 8-8 8 3.582 8 8z" id="outline"/><path class="icon-vs-blue" d="M7 6h2v7h-2v-7zm0-1h2v-2h-2v2zm1.042-3.067c3.345 0 6.066 2.722 6.066 6.067s-2.722 6.066-6.066 6.066c-3.345 0-6.067-2.722-6.067-6.066 0-3.345 2.722-6.067 6.067-6.067m0-.933c-3.866 0-7 3.134-7 7s3.134 7 7 7 7-3.134 7-7-3.134-7-7-7z" id="iconBg"/><path class="icon-white" d="M8.042 1.933c-3.345 0-6.067 2.722-6.067 6.067s2.722 6.066 6.067 6.066 6.066-2.722 6.066-6.066c0-3.345-2.721-6.067-6.066-6.067zm.958 11.067h-2v-7h2v7zm0-8h-2v-2h2v2z" id="iconFg"/></svg>