<svg xmlns="http://www.w3.org/2000/svg" width="16" height="16"><style type="text/css">.icon-canvas-transparent{opacity:0;fill:#F6F6F6;} .icon-vs-out{fill:#F6F6F6;} .icon-vs-bg{fill:#424242;} .icon-vs-fg{fill:#F0EFF1;} .icon-vs-action-green{fill:#388A34;}</style><path class="icon-canvas-transparent" d="M16 16h-16v-16h16v16z" id="canvas"/><path class="icon-vs-out" d="M6 0v2h2v2h8v12h-12v-8h-2v-2h-2v-4h2v-2h4z" id="outline"/><path class="icon-vs-bg" d="M8 5v1h-2v2h-1v7h10v-10h-7zm5 8h-6v-6h6v6z" id="iconBg"/><path class="icon-vs-fg" d="M13 13h-6v-6h6v6z" id="iconFg"/><path class="icon-vs-action-green" d="M7.001 5h-2.001v2h-1.999v-2h-2v-2h2v-2h1.999v2.001h2.001v1.999z" id="colorAction"/></svg>