<svg xmlns="http://www.w3.org/2000/svg" width="16" height="16"><style type="text/css">.icon-canvas-transparent{opacity:0;fill:#F6F6F6;} .icon-vs-out{fill:#F6F6F6;} .icon-vs-fg{fill:#F0EFF1;} .icon-vs-action-blue{fill:#00539C;}</style><path class="icon-canvas-transparent" d="M16 16h-16v-16h16v16z" id="canvas"/><path class="icon-vs-out" d="M16 10h-6v6h-10v-10h6v-6h7.414l2.586 2.586v7.414z" id="outline"/><path class="icon-vs-action-blue" d="M6 9h-1v-2h1v2zm6-8h-1v2h1v-2zm1 0v3h-4v-3h-2v5h.414l2.586 2.586v.414h5v-6l-2-2zm-6 9h-4v-3h-2v8h8v-6l-2-2v3z" id="iconBg"/><path class="icon-vs-fg" d="M6 7h1v3h-4v-3h2v2h1v-2zm6-6v2h-1v-2h-2v3h4v-3h-1z" id="iconFg"/></svg>