<svg xmlns="http://www.w3.org/2000/svg" width="16" height="16"><style type="text/css">.icon-canvas-transparent{opacity:0;fill:#F6F6F6;} .icon-vs-action-red{fill:#A1260D;} .icon-white{fill:#FFFFFF;}</style><path class="icon-canvas-transparent" d="M16 16h-16v-16h16v16z" id="canvas"/><path class="icon-white" d="M7.525 10.842l-3.918 4.324c-.472.477-1.076.725-1.733.719-1.186-.01-1.874-1.432-1.874-1.432v-2.453l4.414-4.043-2.255-2.255c-1.017-1.03-.819-2.595 0-3.414.419-.422 1.072-.676 1.744-.676.687 0 1.312.264 1.715.724l1.882 2.664 5.041-3.505 2.959.005-5.325 6.542 5.825 7.958h-2l-6.475-5.158z" id="outline"/><path class="icon-vs-action-red" d="M14.463 14.988l-.5.007-6.427-5.548-4.573 5.048c-.538.54-1.5.5-2 0s-.539-1.458 0-2l5-4.5-3-3c-.584-.592-.487-1.513 0-2 .471-.475 1.521-.547 2 0l2.5 3.5 5.037-3.995h1l-4.537 5.495 5.5 6.993z" id="iconBg"/></svg>