<svg xmlns="http://www.w3.org/2000/svg" width="16" height="16"><style type="text/css">.icon-canvas-transparent{opacity:0;fill:#F6F6F6;} .icon-white{fill:#FFFFFF;} .icon-vs-action-red{fill:#A1260D;}</style><path class="icon-canvas-transparent" d="M16 16h-16v-16h16v16z" id="canvas"/><path class="icon-white" d="M4.779 13.032c-.473 0-.918-.186-1.255-.521-.338-.339-.524-.785-.524-1.258s.187-.919.524-1.255l2.226-1.934-1.098-1.01c-.37-.368-.555-.816-.553-1.289.002-.471.195-.93.53-1.259.317-.317.782-.503 1.268-.503.499 0 .963.201 1.276.55l1.046 1.379 2.494-1.932h2.973l-3.55 4.096 3.95 4.904h-2.856l-3.118-2.72-2.052 2.199c-.364.362-.81.553-1.281.553z" id="outline"/><g id="iconBg"><path class="icon-vs-action-red" d="M12 12.027h-.395l-3.562-3.123-2.713 2.899c-.309.306-.793.306-1.1 0-.307-.307-.307-.791 0-1.097l3.02-2.62-1.92-1.768c-.334-.334-.279-.824 0-1.098.268-.268.822-.308 1.098 0l1.606 2.122 3.021-2.342h.445l-2.666 3.086 3.166 3.941z"/></g></svg>