<svg xmlns="http://www.w3.org/2000/svg" width="16" height="16"><style type="text/css">.icon-canvas-transparent{opacity:0;fill:#F6F6F6;} .icon-vs-out{fill:#F6F6F6;} .icon-vs-bg{fill:#424242;}</style><path class="icon-canvas-transparent" d="M16 16h-16v-16h16v16z" id="canvas"/><path class="icon-vs-out" d="M16 15.016h-11v.282l-.497.289c-.465.27-.984.413-1.503.413-1.654 0-3-1.347-3-3.003v-6.006c0-.885.391-1.673 1-2.223v-4.768h15v15.016z" id="outline"/><path class="icon-vs-bg" d="M2 1h13v3h-13v-3zm3 8h10v-3h-10v3zm0 5h10v-3h-10v3zm-4-7v6c0 1.104.896 2 2 2 .366 0 .704-.106 1-.277v-2.723h-2v-4h2v-2.723c-.296-.172-.634-.277-1-.277-1.104 0-2 .896-2 2z" id="iconBg"/></svg>