<svg xmlns="http://www.w3.org/2000/svg" width="32" height="96"><style type="text/css">.icon-canvas-transparent{opacity:0;fill:#F6F6F6;} .icon-f12-grey-primary{fill:#555555;} .icon-f12-blue-hover{fill:#2279BF;} .icon-f12-ltgrey-disabled{fill:#ABABAC;}</style><path class="icon-canvas-transparent" d="M32 96h-32v-96h32v96z" id="canvas"/><g id="iconBg"><path class="icon-f12-grey-primary" d="M27.92 18.081c0 6.582-5.337 11.919-11.92 11.919s-11.92-5.337-11.92-11.919c0-6.584 5.337-11.919 11.92-11.919v-4.572l7.947 6.558-7.947 6.556v-4.57c-4.389 0-7.946 3.557-7.946 7.947 0 4.388 3.558 7.946 7.946 7.946 4.389 0 7.947-3.559 7.947-7.946 0-.424-.06-.829-.125-1.234l3.768-1.513c.208.881.33 1.799.33 2.747z"/><path class="icon-f12-blue-hover" d="M27.92 50.081c0 6.582-5.337 11.919-11.92 11.919s-11.92-5.337-11.92-11.919c0-6.584 5.337-11.919 11.92-11.919v-4.572l7.947 6.558-7.947 6.556v-4.57c-4.389 0-7.946 3.557-7.946 7.947 0 4.388 3.558 7.946 7.946 7.946s7.947-3.559 7.947-7.946c0-.424-.06-.829-.125-1.234l3.768-1.513c.208.881.33 1.799.33 2.747z"/><path class="icon-f12-ltgrey-disabled" d="M27.92 82.081c0 6.582-5.337 11.919-11.92 11.919s-11.92-5.337-11.92-11.919c0-6.584 5.337-11.919 11.92-11.919v-4.572l7.947 6.558-7.947 6.556v-4.57c-4.389 0-7.946 3.557-7.946 7.947 0 4.388 3.558 7.946 7.946 7.946 4.389 0 7.947-3.559 7.947-7.946 0-.424-.06-.829-.125-1.234l3.768-1.513c.208.881.33 1.799.33 2.747z"/></g></svg>