<svg xmlns="http://www.w3.org/2000/svg" width="36" height="108"><style type="text/css">.icon-canvas-transparent{opacity:0;fill:#F6F6F6;} .icon-f12-grey-primary{fill:#555555;} .icon-f12-blue-hover{fill:#2279BF;} .icon-f12-ltgrey-disabled{fill:#ABABAC;}</style><path class="icon-canvas-transparent" d="M36 108h-36v-108h36v108z" id="canvas"/><g id="iconBg"><path class="icon-f12-grey-primary" d="M29.322 20.441c0 6.162-4.997 11.16-11.161 11.16-6.163.001-11.161-4.997-11.161-11.16 0-6.164 4.998-11.161 11.162-11.161v-4.28l7.441 6.14-7.441 6.139v-4.279c-4.11 0-7.441 3.331-7.441 7.441 0 4.108 3.331 7.44 7.441 7.44 4.109 0 7.441-3.332 7.441-7.44 0-.397-.057-.776-.116-1.156l3.526-1.417c.195.826.309 1.686.309 2.573z"/><path class="icon-f12-blue-hover" d="M29.322 55.84c0 6.162-4.997 11.16-11.161 11.16-6.163 0-11.161-4.998-11.161-11.16 0-6.164 4.998-11.161 11.162-11.161v-4.28l7.441 6.14-7.441 6.139v-4.279c-4.11 0-7.441 3.331-7.441 7.441 0 4.108 3.331 7.44 7.441 7.44 4.109 0 7.441-3.332 7.441-7.44 0-.396-.057-.775-.116-1.156l3.526-1.417c.195.826.309 1.685.309 2.573z"/><path class="icon-f12-ltgrey-disabled" d="M29.322 91.441c0 6.162-4.997 11.16-11.161 11.16-6.163.001-11.161-4.997-11.161-11.16 0-6.164 4.998-11.161 11.162-11.161v-4.28l7.441 6.141-7.441 6.139v-4.28c-4.11 0-7.441 3.331-7.441 7.441 0 4.108 3.331 7.44 7.441 7.44 4.109 0 7.441-3.332 7.441-7.44 0-.396-.057-.775-.116-1.156l3.526-1.417c.195.826.309 1.686.309 2.573z"/></g></svg>