<svg xmlns="http://www.w3.org/2000/svg" width="16" height="16"><style type="text/css">.icon-canvas-transparent{opacity:0;fill:#F6F6F6;} .icon-vs-out{fill:#F6F6F6;} .icon-vs-red{fill:#E51400;} .icon-white{fill:#FFFFFF;}</style><path class="icon-canvas-transparent" d="M16 16h-16v-16h16v16z" id="canvas"/><path class="icon-vs-out" d="M16 8c0 4.418-3.582 8-8 8s-8-3.582-8-8 3.582-8 8-8 8 3.582 8 8z" id="outline"/><path class="icon-vs-red" d="M8 1c-3.866 0-7 3.135-7 7s3.134 7 7 7c3.865 0 7-3.135 7-7s-3.135-7-7-7zm4.414 10l-1.414 1.414-3-3-3 3-1.414-1.414 3-3-3-3 1.414-1.414 3 3 3-3 1.414 1.414-3 3 3 3z" id="iconBg"/><path class="icon-white" d="M9.414 8l3 3-1.414 1.414-3-3-3 3-1.414-1.414 3-3-3-3 1.414-1.414 3 3 3-3 1.414 1.414-3 3z" id="iconFg"/></svg>