<svg xmlns="http://www.w3.org/2000/svg" width="16" height="16"><style type="text/css">.icon-canvas-transparent{opacity:0;fill:#F6F6F6;} .icon-white{fill:#FFFFFF;} .icon-vso-bg{fill:#656565;}</style><path class="icon-canvas-transparent" d="M16 16h-16v-16h16v16z" id="canvas"/><path class="icon-white" d="M16 8c0 4.418-3.582 8-8 8s-8-3.582-8-8 3.582-8 8-8 8 3.582 8 8z" id="outline"/><path class="icon-vso-bg" d="M8 1c-3.866 0-7 3.134-7 7s3.134 7 7 7 7-3.134 7-7-3.134-7-7-7zm0 13c-3.309 0-6-2.691-6-6 0-3.308 2.691-6 6-6s6 2.691 6 6-2.691 6-6 6zm1.414-6l3 3-1.414 1.414-3-3-3 3-1.414-1.414 3-3-3-3 1.414-1.414 3 3 3-3 1.414 1.414-3 3z" id="iconBg"/><path class="icon-white" d="M8 2c-3.309 0-6 2.692-6 6 0 3.309 2.691 6 6 6s6-2.691 6-6c0-3.308-2.691-6-6-6zm3 10.414l-3-3-3 3-1.414-1.414 3-3-3-3 1.414-1.414 3 3 3-3 1.414 1.414-3 3 3 3-1.414 1.414z" id="iconFg"/></svg>