<svg xmlns="http://www.w3.org/2000/svg" width="16" height="16"><style type="text/css">.icon-canvas-transparent{opacity:0;fill:#F6F6F6;} .icon-vs-red{fill:#E51400;} .icon-white{fill:#FFFFFF;}</style><path class="icon-canvas-transparent" d="M16 16h-16v-16h16v16z" id="canvas"/><path class="icon-white" d="M2 8c0-3.313 2.687-6 6-6 3.314 0 6 2.687 6 6 0 3.314-2.686 6-6 6-3.313 0-6-2.686-6-6z" id="outline"/><path class="icon-vs-red" d="M8 3c-2.762 0-5 2.238-5 5s2.238 5 5 5 5-2.238 5-5-2.238-5-5-5zm3 7l-1 1-2-2-2 2-1-1 2-2.027-2-1.973 1-1 2 2 2-2 1 1-2 1.973 2 2.027z" id="iconBg"/><g id="iconFg"><path class="icon-white" d="M9 7.973l2 2.027-1 1-2-2-2 2-1-1 2-2.027-2-1.973 1-1 2 2 2-2 1 1-2 1.973z"/></g></svg>