<svg xmlns="http://www.w3.org/2000/svg" width="16" height="16"><style type="text/css">.icon-canvas-transparent{opacity:0;fill:#F6F6F6;} .icon-vs-out{fill:#F6F6F6;} .icon-vs-bg{fill:#424242;} .icon-vs-fg{fill:#F0EFF1;}</style><path class="icon-canvas-transparent" d="M16 16h-16v-16h16v16z" id="canvas"/><path class="icon-vs-out" d="M15.941 10.195c0 2.875-1.081 4.359-3.248 5.193-1.022.393-2.35.609-3.739.609-4.131.001-8.954-1.565-8.954-6.966 0-5.78 7.262-9.031 11.326-9.031 1.39 0 2.41.305 3.033.905.655.629.983 1.354.975 2.151-.019 1.718-1.599 3.174-2.993 4.458l-.126.116.215-.004c2.237 0 3.511 1.306 3.511 2.569z" id="outline"/><path class="icon-vs-bg" d="M11.667 8.682s-2.666.641-.666-1.284c1.698-1.635 4.666-3.849 2.665-5.772-1.999-1.925-12.666.64-12.666 7.056s8.001 7.057 11.334 5.774c3.333-1.282 3.999-6.415-.667-5.774zm-9.167-.182c0-.553.447-1 1-1s1 .447 1 1-.447 1-1 1-1-.447-1-1zm2 4c-.553 0-1-.447-1-1s.447-1 1-1 1 .447 1 1-.447 1-1 1zm0-6c-.553 0-1-.447-1-1s.447-1 1-1 1 .447 1 1-.447 1-1 1zm3 7c-.553 0-1-.447-1-1s.447-1 1-1 1 .447 1 1-.447 1-1 1zm0-8c-.553 0-1-.447-1-1s.447-1 1-1 1 .447 1 1-.447 1-1 1z" id="iconBg"/><path class="icon-vs-fg" d="M8.5 4.5c0 .553-.447 1-1 1s-1-.447-1-1 .447-1 1-1 1 .447 1 1zm-4 0c-.553 0-1 .447-1 1s.447 1 1 1 1-.447 1-1-.447-1-1-1zm-1 3c-.553 0-1 .447-1 1s.447 1 1 1 1-.447 1-1-.447-1-1-1zm1 3c-.553 0-1 .447-1 1s.447 1 1 1 1-.447 1-1-.447-1-1-1zm3 1c-.553 0-1 .447-1 1s.447 1 1 1 1-.447 1-1-.447-1-1-1z" id="iconFg"/></svg>