<?xml version="1.0" encoding="utf-8"?>
<!-- Generator: Adobe Illustrator 18.0.0, SVG Export Plug-In . SVG Version: 6.00 Build 0)  -->
<!DOCTYPE svg PUBLIC "-//W3C//DTD SVG 1.1//EN" "http://www.w3.org/Graphics/SVG/1.1/DTD/svg11.dtd">
<svg version="1.1" xmlns="http://www.w3.org/2000/svg" xmlns:xlink="http://www.w3.org/1999/xlink" x="0px" y="0px" width="16px"
	 height="16px" viewBox="0 0 16 16" style="enable-background:new 0 0 16 16;" xml:space="preserve">
<style type="text/css">
	.st0{opacity:0;fill:#F6F6F6;}
	.st1{fill:#F6F6F6;}
	.st2{fill:#424242;}
</style>
<g id="outline">
	<rect class="st0" width="16" height="16"/>
	<path class="st1" d="M16,4.022V1H-0.014v3.022h3.046l-3.043,7.945h-0.004v0.01L0,13h-0.014v1.991H16v-3.023h-1V4.022H16z
		 M10.086,9.323c0,0.233-0.023,0.441-0.066,0.595c-0.047,0.164-0.099,0.247-0.127,0.284c-0.025,0.033-0.05,0.056-0.078,0.069
		c-0.021,0.01-0.075,0.026-0.151,0.026c-0.063,0-0.105-0.013-0.115-0.017c-0.043-0.021-0.077-0.044-0.139-0.137
		c-0.031-0.078-0.112-0.332-0.112-0.566c0-0.254,0.091-0.561,0.126-0.656c0.036-0.098,0.063-0.133,0.069-0.141
		c0.026-0.032,0.062-0.059,0.109-0.082C9.619,8.69,9.671,8.671,9.78,8.671c0.077,0,0.117,0.014,0.177,0.056
		c0.019,0.022,0.055,0.076,0.087,0.179c0.027,0.091,0.045,0.204,0.051,0.237L10.086,9.323z M6.391,4.022v2.893L5.275,4.022H6.391z
		 M3.365,11.042h1.573l0.351,0.926H3.035L3.365,11.042z M12,6.688c-0.206-0.2-0.431-0.38-0.695-0.512
		c-0.396-0.198-0.853-0.298-1.355-0.298c-0.215,0-0.423,0.02-0.621,0.058V4.022H12V6.688z"/>
</g>
<g id="icon_x5F_bg">
	<rect x="13" y="4" class="st2" width="1" height="8"/>
	<path class="st2" d="M11.225,8.387c-0.078-0.299-0.199-0.562-0.36-0.786s-0.365-0.401-0.609-0.53S9.722,6.878,9.39,6.878
		c-0.198,0-0.38,0.024-0.547,0.073C8.678,7,8.527,7.068,8.39,7.156C8.254,7.244,8.133,7.35,8.025,7.474
		c-0.067,0.079-0.121,0.17-0.179,0.258V4.578H6.953V12h0.009h0.763h0.121v-0.575c0.041,0.058,0.078,0.119,0.126,0.175
		c0.087,0.102,0.189,0.19,0.304,0.269c0.117,0.078,0.249,0.14,0.398,0.186c0.149,0.046,0.314,0.068,0.498,0.068
		c0.353,0,0.666-0.071,0.937-0.212c0.272-0.143,0.499-0.338,0.682-0.586c0.183-0.25,0.321-0.543,0.414-0.879
		c0.093-0.338,0.14-0.703,0.14-1.097C11.344,9.007,11.305,8.686,11.225,8.387z M9.746,7.78c0.151,0.071,0.282,0.176,0.39,0.314
		c0.109,0.14,0.194,0.313,0.255,0.517c0.051,0.174,0.082,0.371,0.089,0.587l-0.007,0.125c0,0.327-0.033,0.62-0.1,0.869
		c-0.067,0.246-0.161,0.453-0.278,0.614c-0.117,0.162-0.26,0.285-0.421,0.366c-0.322,0.162-0.76,0.166-1.069,0.015
		c-0.153-0.075-0.286-0.175-0.393-0.296c-0.085-0.096-0.156-0.216-0.218-0.367c0,0-0.179-0.447-0.179-0.947
		c0-0.5,0.179-1.002,0.179-1.002c0.062-0.177,0.136-0.318,0.224-0.43C8.332,8.002,8.474,7.886,8.642,7.8
		C8.81,7.714,9.007,7.671,9.229,7.671C9.419,7.671,9.593,7.708,9.746,7.78z"/>
	<rect x="0.987" y="2" class="st2" width="14.013" height="1.023"/>
	<rect x="0.987" y="12.968" class="st2" width="14.013" height="1.023"/>
	<path class="st2" d="M1.991,12.031L2.719,10h2.219l0.778,2.031h1.082L4.313,4.873H3.372l-2.441,7.086l-0.025,0.072H1.991z
		 M3.818,6.422c0.005,0,0.016-0.001,0.022,0l0.914,2.753H2.913L3.818,6.422z"/>
	<g>
	</g>
	<g>
	</g>
</g>
</svg>
