<svg xmlns="http://www.w3.org/2000/svg" width="16" height="16"><style type="text/css">.icon-canvas-transparent{opacity:0;fill:#F6F6F6;} .icon-vs-out{fill:#F6F6F6;} .icon-vs-fg{fill:#F0EFF1;} .icon-vs-yellow{fill:#FFCC00;}</style><path class="icon-canvas-transparent" d="M16 16h-16v-16h16v16z" id="canvas"/><path class="icon-vs-out" d="M9 0l7 14-2 2h-12l-2-2 7-14h2z" id="outline"/><g id="iconBg"><path class="icon-vs-yellow" d="M8.382 1h-.764l-6.401 12.803 1.283 1.197h11l1.283-1.197-6.401-12.803zm-5.487 13l-.449-.412 5.554-11.101 5.555 11.101-.449.412h-10.211z"/><path class="icon-black" d="M7 5h2v5h-2v-5zm0 8h2v-2h-2v2z"/></g><path class="icon-vs-fg" d="M8 2.487l-5.555 11.101.45.412h10.211l.449-.412-5.555-11.101zm1 10.513h-2v-2h2v2zm0-3h-2v-5h2v5z" id="iconFg"/></svg>