<svg xmlns="http://www.w3.org/2000/svg" width="16" height="16"><style type="text/css">.icon-canvas-transparent{opacity:0;fill:#F6F6F6;} .icon-vs-out{fill:#F6F6F6;} .icon-vs-bg{fill:#424242;} .icon-vs-fg{fill:#F0EFF1;} .icon-vs-red{fill:#E51400;} .icon-white{fill:#FFFFFF;}</style><path class="icon-canvas-transparent" d="M16 16h-16v-16h16v16z" id="canvas"/><path class="icon-vs-out" d="M14 15.24v.76h-11.99c-.023.021 0-13 0-13h1.99v-1h1.01c.413-1.164 1.706-2 3.01-2 1.305 0 2.578.836 2.99 2h.99v1h2v4.76c1.205.807 2 2.181 2 3.74 0 1.56-.795 2.933-2 3.74z" id="outline"/><path class="icon-vs-bg" d="M7.76 14h-3.76v-9h8v2.05c.347.039.682.112 1 .225v-3.275h-2v-1h-.99c0-1.104-.895-2-2-2-1.104 0-2 .896-2 2h-1.01v1h-2v11h5.704c-.36-.288-.686-.616-.944-1zm.25-12c.553 0 1 .447 1 1s-.438 1-.99 1-1.01-.447-1.01-1 .448-1 1-1z" id="iconBg"/><path class="icon-vs-fg" d="M7.01 3c0-.553.448-1 1-1 .553 0 1 .447 1 1s-.447 1-1 1c-.552 0-1-.447-1-1zm-.01 8.5c0-2.485 2.015-4.5 4.5-4.5.171 0 .334.032.5.05v-2.05h-8v9h3.76c-.479-.715-.76-1.574-.76-2.5z" id="iconFg"/><path class="icon-vs-red" d="M11.5 8c-1.933 0-3.5 1.567-3.5 3.5s1.567 3.5 3.5 3.5 3.5-1.567 3.5-3.5-1.567-3.5-3.5-3.5zm1.854 4.646l-.707.707-1.147-1.146-1.146 1.147-.707-.707 1.147-1.146-1.147-1.146.707-.707 1.146 1.147 1.146-1.147.707.707-1.146 1.145 1.147 1.146z" id="notificationBg"/><path class="icon-white" d="M12.207 11.5l1.147 1.146-.707.707-1.147-1.146-1.146 1.147-.707-.707 1.147-1.146-1.147-1.146.707-.707 1.146 1.147 1.146-1.147.707.707-1.146 1.145z" id="notificationFg"/></svg>